<mxfile host="app.diagrams.net" agent="Mozilla/5.0 (Windows NT 10.0; Win64; x64) AppleWebKit/537.36 (KHTML, like Gecko) Chrome/129.0.0.0 Safari/537.36" version="24.7.16">
  <diagram name="Page-1" id="2tDjr9eWlVxZhWjJ8eBX">
    <mxGraphModel dx="1059" dy="656" grid="1" gridSize="10" guides="1" tooltips="1" connect="1" arrows="1" fold="1" page="1" pageScale="1" pageWidth="850" pageHeight="1100" math="0" shadow="0">
      <root>
        <mxCell id="0" />
        <mxCell id="1" parent="0" />
        <mxCell id="ehs7xjd948KIHO_ivZdt-11" style="edgeStyle=orthogonalEdgeStyle;rounded=0;orthogonalLoop=1;jettySize=auto;html=1;" edge="1" parent="1">
          <mxGeometry relative="1" as="geometry">
            <mxPoint x="250" y="207" as="targetPoint" />
            <mxPoint x="158" y="207" as="sourcePoint" />
          </mxGeometry>
        </mxCell>
        <mxCell id="ehs7xjd948KIHO_ivZdt-3" value="" style="image;aspect=fixed;html=1;points=[];align=center;fontSize=12;image=img/lib/azure2/azure_stack/User_Subscriptions.svg;" vertex="1" parent="1">
          <mxGeometry x="90" y="180" width="68" height="66" as="geometry" />
        </mxCell>
        <mxCell id="ehs7xjd948KIHO_ivZdt-12" style="edgeStyle=orthogonalEdgeStyle;rounded=0;orthogonalLoop=1;jettySize=auto;html=1;" edge="1" parent="1">
          <mxGeometry relative="1" as="geometry">
            <mxPoint x="465" y="207" as="targetPoint" />
            <mxPoint x="350.6700000000001" y="207" as="sourcePoint" />
          </mxGeometry>
        </mxCell>
        <mxCell id="ehs7xjd948KIHO_ivZdt-15" style="edgeStyle=orthogonalEdgeStyle;rounded=0;orthogonalLoop=1;jettySize=auto;html=1;dashed=1;" edge="1" parent="1">
          <mxGeometry relative="1" as="geometry">
            <mxPoint x="159" y="226" as="targetPoint" />
            <mxPoint x="249" y="226" as="sourcePoint" />
          </mxGeometry>
        </mxCell>
        <mxCell id="ehs7xjd948KIHO_ivZdt-4" value="" style="shape=image;verticalLabelPosition=bottom;labelBackgroundColor=default;verticalAlign=top;aspect=fixed;imageAspect=0;image=https://huggingface.co/blog/assets/167_gradio_lite/thumbnail.png;" vertex="1" parent="1">
          <mxGeometry x="260" y="180" width="85.67" height="70" as="geometry" />
        </mxCell>
        <mxCell id="ehs7xjd948KIHO_ivZdt-16" style="edgeStyle=orthogonalEdgeStyle;rounded=0;orthogonalLoop=1;jettySize=auto;html=1;dashed=1;" edge="1" parent="1">
          <mxGeometry relative="1" as="geometry">
            <mxPoint x="351" y="226" as="targetPoint" />
            <mxPoint x="461" y="226" as="sourcePoint" />
          </mxGeometry>
        </mxCell>
        <mxCell id="ehs7xjd948KIHO_ivZdt-6" value="" style="shape=image;verticalLabelPosition=bottom;labelBackgroundColor=default;verticalAlign=top;aspect=fixed;imageAspect=0;image=data:image/png,iVBORw0KGgoAAAANSUhEUgAAAzUAAACwCAYAAAA2eUAaAAAAAXNSR0IArs4c6QAAAARnQU1BAACxjwv8YQUAAAAJcEhZcwAAFiUAABYlAUlSJPAAAD/PSURBVHhe7Z0JmB1Fuf7L6xWuICqILKKyCG7sgl4X4C+IyiYqGkRBEUUERUQUEBHOJcl0VZ/JJJlMV/WZ7IBgGBACiSwCRtZgjCQgiywBsoCEBMi+TTL5f9WnJ0wyleSc09V9enl/z/M+J5lM+nR9Xd39vV3VXzEAAAAAAAAAAAAAAAAAAAAAAAAAAAAAAAAAAAAAAAAAAAAAAAAAAAAAAAAAAAAAAAAAAAAAAAAAAAAAAAAAAAAAAAAAAAAAAAAAAAAAAAAAAAAAAAAAAAAAAAAAAAAAAAAAAAAAAAAAAAAAAAAAAAAAAAAAAAAAAAAAAAAAAAAAAAAAAAAAAAAAAAAAAAAAACABvNY9meLHMCnOYkqU6M9j6XMik/xB0tOk+VWJRfS5JpASrwU/U3wu6THSX5l0bqJPSb93CfPFqfQ7n6W/7xh+CwAAAAAAAABYwHf3Y8r9PhmOEWQ+ppAxWbDBqMQmZxZ93sp8PpA+T2QdzvvCvQEAAAAAAACArTBSfJDMy4+Z4l30OW9js9E0rSb9i9RBBusk1tq6fbi3AAAAAAAAAEB4Yv9wGtmMPkYivVJ8KX3eTp9ns87SzmErAAAAAAAAAIWiMnR3Jp3LyBg81s80ZEmKryD9mUzZaWxc6X/C1gEAAAAAAAByyfr1b6Pk/3jm8T8FZsBkErIsJV6ldrUx5X4sbDEAAAAAAAAgF7S3b0tJ/xlMipn9jEA+tZoMzh30eWJg5AAAAAAAAAAZpbO0HZPORUzxlzdJ+oukqcHoFAAAAAAAACBDlErbUDL/CzIzczZJ8Ius+ykex4QRAgAAAADIPqPdHdjo1j2ZVz6E+fyLzONfZ0qcSXnPL+mzRJ/DKP/R6wl2hZrIpLg7kBL3kaZvkBQP9/m320j6968OtiGdy1kHP4fJllPoO45iwwfux7oo3wQgNryWL1HnzfbL/3FKT0vzWz4ZRgskiS8up/gLqAZ5zncpYpg6CQBIH6NadmXKdYzXrlrlD96DtoRr3NYIijq1HE0xO5N52qCIcfTne+h++hh9vkxaRVrfRHUHawsqcRcZKsV891es4h7NOsV7whbkF+WeHPk8kPz/2JTSf4dbBBvocD5KwblzowQeMkvxZSSB9W4SRvL/0ElsuihCm8rjE/A+GAAglXh8MCXXa43XrprF21hX19vDLQIdiw5+IMXlbDIJnXS/fJA+3zDHLhNaR3qS2jGe2vTzYOmQvN3T9NqJkkc7D6SzCJV7+1Iih6f4xRTYJSRzEg+Zpfhz1KG+EkYSxA1MTe2CqQFg8+gkQA05lHW4n6K/4TxJkvbSu+lavsB43apPi1l7+/vDrRYb5Z5D8Xhzk/jkUS9S31GkE3PxUBmmxjI+P5hJ8SgF1Zy0QzXKGVeIodJmA1NTu2BqAKg+tBslPsF88W06L66i5O9G+nyG1B2cJ1J00u/8V/jbIAmk+A1dyyOO0mzQFaxrAEZr9BQkezHNhqRYTm3+I53bX87siB1MjSV0slMtBKBX1jck6VD9cmYFL76B+ICpqV0wNaBI6L6u+D5kWk5iqvxb5rvX0Xkwg7Tl9wVgapJFJ1+Sz6bY9/Q7Fo3I4/ODl9yLThFNzcZ6gUn3SiaHfIiikZ37HkyNBYbrF/TEXRRIQ2IORdRK0pW4ScYETE3tgqkBeUcO+hAZmZFkZP5OfX5Jv3OgFsHUJEvwvofl5NsX5xf+GMLUhOKrSBU2YtDebH0GzA1MTUQUP4wC+DzJlJBDtqT4X5gq7RJGHdgCpqZ2wdSAvFNp/V+6JkRMCGBqEkNPEZLiSYq7nVGaXkn+Ahs3rtjTb2BqNpE2N8Jnw/heFJ303gdhaiLgiZ/QgV5GATQn4pBdBUUEygeF0Qc2gKmpXTA1IO/A1GQLxQdQzKvvMtmW5GcU+jjC1GxGfAUl/Zez9vZtw0ilC5iaBgjmGosrKHDm5BuKUeIN+jwxPBIgKjA1tQumBuQdmJpsIcUjdLzsjtK8pccKvYgjTM3WNJNVyp9L3bkOU1MnbW3vJKfaRUEzJNxQItJPCvQoGYgOTE3tgqkBeQemJjsofizFO55Rml7pB4hFPZYwNbVI97+rWGfnO8KoNR+YmjrQNbyxmGaKJFrCIwMaBaamdsHUgLwDU5MdqsWJ4hql6dWUwq6sDlNTu6S4g6lW/c5z8++PMDU1Mqz0XgrU/SRDcg01TzA2kYCpqV0wNSDvwNRkg47Bh1Os4x2l6ZU36IhCXvdgaurVc0zxQ5veV2BqakDxHUnTKFCGpBpquhRvDY8UqBeYmtoFUwPyDkxNNlBiAmndRnGPS1JMpONZvNEamJr6JcUiNqLlC009/2FqtkIw5UxMoSCZE2ooHfLpAgTqB6amdsHUgLwDU5N+Rg75KMV4tTH2cUhPcfP5wYW79sHUNCZtCKT4fNOuATA1W0AXBZDiXgqQOZGG0iXFLw6PHKgVmJraBVMD8g5MTfrxuKQ4JzNKs0F8dOFGa2ybGj2KocQc+nyStjuV/nwXqauPrg7OnY3Eh9HPRTAbpfr3a4LfDd7tptxUien0OYs+kzO5tUjy11nFPbwp90uYms2gL8qocpY10Yntfj88gqAW7JgaurA6l+Zeyj2ZIgZTA/ILTE266XDeR/HVybE59rGJr2Ad7gfCvSgGtkxNe+mDtLV47xt6EdaR4oPME0cwWT6DPq+gYzaW9Bi1IZl3r/qJz2bjyrvR3iV7z4Sp2QxSDKHAmBJnKN1azryWL4VHEWwNO6ZmHFuPZB+AzANTk26keynFN3qi3ZhKQfJcFGyZGs97V7jF5uCV3sUq/CjaF0F6mtoUd8W8tyT5pMQX6YSpMSCdcykopoQZyoKUeI357n7h0QRbAqYGANALTE160QthKvESKbmktK/0vaLZCXqS5MXUbIo3cH/mOcPpPH3DuL+2VXEuTXTqIkzNJijxWab4MgqKOWGGsiHFn2DtpXeHRxVsDpgaAEAvMDXpRfHvRT42USXFjwtzbPNqanrRIzge/xXt42uk+IyyzseSLDQBU9MHr7wbBeOl4CBAOZBzE17s3gowNQCAXmBq0osUj9Cxac4ozVuaydK0enyc5N3U9DJu2HvJMLukVcb9tyI+ma4J24TfGC8wNSH6IizF3RQMQ3IMZVaec354hIEJmBoAQC8wNelkRMuRFNtoL3xL/jJ9RjdFvvhyIR4WFsXU9OINPoTMxyO0z3FV1js+kesCTE1IUOHIkBRD2ZbiS5ksHxQeZbApMDUAgF5gatKJ4jdSbKMkm91sFD+Mjs2bhn+rU8FT9/yXdy6aqdHo4yp5u5V299djiRgFmBpC6ZOdLyeZE2Mo21J8Rj7mR8YATA0AoBeYmvQxZug+FNOVxljXKkmmqDdhjf4kfh3zWz+Z+2t+EU1NL3qGSxwLvHrOCbFfGwpvavQ8PylmUhDMCXHGtf2oIWs+1TWuO2v6wPiOblN7Gpbig8MjDvoCUwMA6AWmJn1IZyjFNZoR8Vu+EEwZG9W2L90Lo787IbnKfXnnIpsajSd+SueyriZrbldD4n+K/Z2swpsaXXvdlATnRL975L61a9atW58ljX/68XU7jG4ztqdh6cXDFD80POqgF5gaAEAvMDXpolO8h47H68Y41yz3ITalz3QxJW4jRRyt4cuYat0l3GI+Kbqp0Xi6gEDEd7n6So/+dIoP05bjyxcKbWo8sX9wcpqS4Bxo20p5zewli3tMxiGNem3F8vWn/eXWtaa2WJF+Ca4Ic4HrAaYGANALTE26UOLCyMfDE6dudDyk8xX6efREVYrLWNeA/I7WwNSE79iIh6kd9ooH+M5lseZhhTY1it9DjTcnwDnQD++dnJlRmjtmz+qxPuXMJMXPC48+0MDUAAB6galJD3p6l+TPUkwbr1gmnRfZuHEbJ2d6Gpp+aVtGrISmq6l1dm4XbjV/wNRUGdHyceori41ta0RS3BcsJBsXhTU1vvg2Ndyc+OZE0+f/J/WjNEtWr15/ydQpa/9LCWMbYtB81n7Z+8NeAGBqAAC9wNSkBylOoXhGHVG50HgsfP2+hIWEXfIzcnusYWreQoqylVho6SlojvO+cMv2KaSpaWt7J1P8OWq4KenNhY6bdEO3yUSkSTMWvNpz4IQx8Y/O9Fd72BMATA0AoBeYmvSgxN/oWEQYpRFvUJ6zY7i1jeksbUfbftX4/+qRdKeyznPyuRgnTM1bjBq+a7U/GdrXiDqck2O7RhTS1EjnImq0KdnNjfR0LpORSINWr127ftjMaeu2qZSN+56AVtJJ9dGwNxQbmJpsECQh4hPMc79E16/vVJ+0OpdS7AX93AsSSS19LJS4tvr3oHwr/Xtwc/4l8/k36f98mnnl3cKtglrQL2tX3MMphl+jJPEcimkpjGsljLmO96jwGJTpd5wg3ooPCKpO+XyvWKdb2ASmJh0ECyFGHaXhrVusUKa4oN+LnrQr8dlcLsYJU7MxUgy1Eg8tTwzfqHiFTQpnalpbt6eDM48abUp2c6EDJozu1sbBZCiarVmL3+z54sTrmjE6s7EUHxv2iGIDU5MedGLgOfvS9ekU6p+/o7heT58z6O/2npBtUFAN8CH683D6/B5pn3Avio1XehfF5KtMuQ7z3TspLnM3jlvDWkfbepmOpX7pdgKdd1cy2XJKcLzTZABgatKB5CMplo2/nK3vcSNa96Ytbf66PLp1T/q9aOvfVHU1He/8FeCBqdmYivM5OrftrF0jxb3UZ+J50FM4UyOdy6jB5kQ3J9IlkU2Gotma8NxT63YcM8y4z03QSiYHfiLsFcUFpqY5bDAwznfoAl8OLvKKW1jtO4Kk+Bft01WsY+CB4V4Wgw73A0yWf0Htv5/iYHldhpq0lHl8KsW+k3Xwc8LrUnPOJxumRq84H1TY4semQnqkLUt0DtmZ4hjtxWzJr6vJaCh+A/1+tMpWemHQytDdwy3mB5iajdEPKqR4kdoUrcBEVXNYe/u24ZbtUihTo6dwKErizEluLqQriC1bs8ZoKpqlBSuXrz/97tviK9XcsJxxYc8oLjA1yTGqZVfmix8z5d5IN4cYRl8sSi9IrKe4lUr5uCFvijaVldYT6RpwN7U3euJiXfo+5VzHKu53Ek3KrZialKnD+Vympkf54hI6/6IdA198pqY2e/wo+q7o5Z19cXnuFuOEqemPdPS0ZhvXBz1ybX7fKyqFMjXS+Rk11pDc5kf8nw+napTmrtkv9Owx3mv+dDOzlrPhwUJQxQWmJn6qpVlvpTg1YxQgovToEW9lo9p2CluTbYKnjfwM0pPm9qZQesqHR+arvfyRsBXxAVPTXKrrgjxP+x3lafiUmkZpelFiGh3zaE/fPT6nX+norANT0x/J9Yi2ncU4ZeunYzkvC2NqqonF0yRTcpsL6VX49QKWJnORtJauSbxUc2NS3A17SDGBqUkGJaJXGmquFjJfnJ/pSkeV8ueov/+d2mJj+kTySqLAA0xNc9HFPKIWCNDv5NXzTpMUZ9H/s5Co8gF1fW/aganpj+LHUJvsvFfTwb8VS38pjKmp8K9RQ82JbU70ywfvScVimzMXzO85+IamlGquXzpZy+sUm1qAqUkGyR80xC170tPSlPuxsFXZQM/dlnwYKdq7A82UFLMSmd4DU9NcqguCRyjjzOfWPWKiiyfp+6Bpe/VIiimxVbRqBjA1/fHb9qA+usrYzvp1ZizXtMKYGj39w5TU5kRvV2LNM2++3tQyzrrimv/Eo+u2GznEuI+plT65igpMTTJIPp7ilM0Rgk0l+ZLgXY9mvcxeD7p0u+L/NLYjW5qQyFNwmJrm0cEPJGMQbcTEp0S8a0D9iaIuCx+5YACZMa98SGYM5NaAqelP1QDbqJin38M6H6amUUaKD1IjV5LMSW0O9O27bmnqKM2cpYt7jp90QzZGZ/rrfuolxUzKYWqSQbm/p1jnw9S8pStSncBUWo+imC8w7Hf2JMVFicQapqZ5KO7T/jZuLPS9rDN4R7T+trbzQ6mPRX/nT6/dlJfyzjA1/dHnkeTLjO2sVxXn0lj6SiFMjedcQY00JbO50QOvzGnaKM0Nzz217n1jhxv3KzPyBu4f9pZiAVOTDHpkI3+mhkRmLY0JoyoPoCRxhXmfs6iWI6lVMDWNKAumRhfikO4i4/7XLP6nSEmidKdauEYtDUpS5wGYGjOK23k/VIpBMDWNIvm/SOZkNgc64uY/dJvMRtxauHLF+p9MuSOFpZobkBJXhb2lWMDUJEN1RfocmhpSUqMItdIpjqcbr615382Xvj4llRjB1DQHxX8dOe6ec1ykdvriJ1aOvb4eNDIFLm3A1JiRfL6xnfXK4w5MTSP4/GBqoDmRzYlunvVM4mWc7395Ts8+1/pZnW5m0r+ptxQvMYepSQa91kjUOetplb6BSH4itbL5fUCvz6GfFpv2M6uSzqOJJYkwNckTVGYVz9K+Nv7QQ/JnWVfEFdrbS+8mc2VhAWC9L13xrBafJDA1ZmxNP/Ody2BqGkEPcZmT2Fxo3z9UuletXWs0HnFoRXf3+iunPbBWFyYw7U+m1TH4U2GvKQ4wNcmR/bLOWxAlQ1LolfCbx7Bh76X9eMG8f5mWTzf/ZErlwtQkj3JPpv2MWCBAXGKljyheoe1ZePjinJRYn40LmJr+tLW9k9pkp1CAEhegUEAjKP4YNdCcxOZA8l//TGyU5vGF83sO7Rqbp9GZjaVffC4aMDXJkZeyzpuTx6fF8uStViS/joxV/qb4efxHiSXlMDXJI/ntpAijNJRk2lrDaMTgz9D2oq9ZI/mkpl4LbABT059Rw3elnNrO1F69PhJMTZ1Uq56ZE9gcaKexw9e8uWql0YDYVG+p5u1HZaxUc71S/CHqNcVKzmFqksNqWWf9Ejx/mW4MswIp/gT9fDp9PlX9u1hI35d8cqrLdDYjgewsH0vfH//0PikWBdcJxcfS34fT52C6AV66QUqIQFKMofjfSp8Pk16knzW+bxV+ILUQpqZRpdnU+O5+ZFqjVh271mpyqK8jUd//031oROvetLXs3hdgavpToXNJWlp80xOnsgExTKvNtanxghffzAlsDnTFtPtjL+M8d+mSnpP+fGN+R2f6Sj+BGH7ZrmHvKQYwNckhxeUU71qSBX2+/Zt+/ybSoOA65jsnMNVyABvVsmuwmGQt6Dn2ep0W/X/1dnxxf7WfG7/TjnTSXxm8e7gHyaCnuQSGLo5RGr6MbnA3k85iw0u6XG5jBAuAlg+iY/ltOg5DKJmdStuv5VgsZp2d7wi3Ej8wNckinTLtY0Qz3nKk1fb57s+s9AF9zYnjSXxSwNT0x+M/tHcP4cfGMkUx16ZG8a7gAORQ21bKa/TaMCYjYks3Pf/vdTuPbTd+f26lxGlh7ykGMDXJYS7rvI5u/k/Sz8fT9ernwYvutZqWRtDTVJT7Oybd2Zvsh0W5bqJJZEWcQt9rd5RG8ufpeJxHhmK78Fvsoxeyq7SeSEZHUh8wvwsknXsTfTfBjql5jaRNZjqU5EhXPej3E2Tk9+wes76Kv+I7khYbvqs+ST6PjRuX0vcSagCmpj/KdahN0acnanmte9IW7Z+XOTc1c6hx5uQ14zp7yu2xjdIsWr1q/QUP3J2PUs31SokRYe8pBjA1ydFb1lmXxJTOKOY5JwQVh5qBHsWpuOfSvswzHM9o0qM1w0rvDb8pfiS/k77X1ijNHFYpn8GmTEn+fYDOIR+n2F1E9y2djIft4SJzpkaKzkT3OasocWbkWOsHIXHE2hdjaPvRHxRIcUpm+wJMTX+kuJ/aZKNfLKJ+EY9pyK2p8Zx9qWHmxDXjehvpsYXzYxmlefCVuT26oprpewuif1LvKU6CDlOTHJ2l7Zhyj0zVlAz9VNZzrqZjaHfqli9+k8hojeL70PfZeXKo+I1B6e00UGk7kM7N8dRfTkp21AumJjH0u1mRCgTwJcGinXEwouULdBxtFAy43fpIUlLA1GyMXlTV1oLGkv8jcgnyzZFbU6Pc71PDTElr5nXi5C7ri23qUs3O9IfXvcN3jd9ZGOn3apJ8ytxsYGqAxnPOp74Q/QbeKykeTSSx9ZwLaL9tGLJxmZ7/bwuYmmTQywdENeM6znH22aBybMSHHboveW370tayd3+AqdkYzzmd4mHnfRpdqTKudwXza2rE8OAA5FB/mfOC1VGaZ998vefzN19b5NGZjdUx6IthL8o/MDWgl+qDIHvvpujKTnGjK4xFHWXSi1umcv50E4CpSQbpdFKsop5rn411FE+JCyP3hUCuk8kHBjA1G+OJv1J7LN0f+MV0jYhnBC+3pkaKe6lh5qQ1w9LrxJiMSaMa//Tj6941qs34XYWVfmpdFGBqQF8kH0iyNRXtt7EmXTpxViL6CujSPZq2hv6rgamJH71IrHQXGWNXs/gTsU/rUq27UF+Ivnq85K8ERRGyBkzNW+gCNrZKOWt55UNiuzfk19Tol3ENCWvGde0zT1hZbPPlZUt7vnb7TcUsBrB1VcJelH9gakBf9BPV6sug0Y1N3JW7dPWcqE8OpfgXEvA+wNTEj+S/iBxjX1ySSIyVmECy8HSeD8hcn4CpeQslbiHZGsWfE2uFz1yamtHuB6hRpmQ109pjvNe9vHuN0aTUo8kvPtez+9Udxu+ASIo/QL2oGEk6TA3YFD1tTK9Sbj7WdYgvi/XmZWXBTbc10Rfx0w5MTbzovuaRkY720KA7WFg8CZT4avB95v2oXZL/JXMFA2BqqqjyAIqDnXdptHRlvTjX3sqlqfHEEcFByJnKjz4SaZRmcViqWVdPM20f6pWYR70IpqZ2LST1Xx8iqxod1M8vNh7Xa6fYmIb2WdpaPOeS4udQ/426j2fC1PQBpiZeZMvRFKOIJoFPpvgmYxCqI7ez6HujnmfrWMeQj9IWs3OuwdQwdo2egkj5kM3qmNL5DusaEN87Vrk0NZKfQTIkq9nVDqPb1ixYudxoVmrRw/+Z1/PR6zpRDKBWuRfvEPamfGPH1ORM7sfC6BSX6tSu6E9oK+VfxDd32vkN9d+IN1vnJNoSTE0vMDXxonj06VyeODXR+HpOKXKfCMTdTBUMKLqp0UsQ+JbWpemV5K+z9vZ412bLpalR/PfUKHOymlFd9NC9DS22uXJttVTzNpWycbvQZuQN3D/sTfkGpsYgmJoAvcZE1Cd0PlcxvhCqk45o+yfdb9CWYGp6gamJj8rQ3Sm20db5kHwBu6Z1+3CLyeAP24tyqlXG/alHkr/KOju3C7eafopsavRIoOQ30P7bMzRa2nB0nhPf1DNNTk2NpEaZk9UM6r99d82sxW82VMZ50epV65958/WepPXUGwt6zvrrn7NbiKBj8FfD3pRvYGoMgqkJ8NwfUf+IaBqcKbEluB53LezfuZh+1geYmvjwxeUUm4ixpYStGaMdUtxB3x89we0Qp2WmbxTV1Ix2d6B261L5dg2NHvkfMeTjsV9vc2pquqhR5mQ1g/ruX25taJSmWXp+0Rs9R97yh2xPdfOc74a9Kd/A1BgEUxPQKT5M8Yh2Y5PildiSGBsjNUqUYGr6AFMTDzoenoV3U3Rp3Wb0V1+cSt9vo2DAPZkpGFBEUzNi0N6UP0+zcF01aQKLs0BAL7k0NTlbo+ahV+ZaXWwzTk147ql1O44ZZmxHplSUtWpgagyCqdmA4rPNMapZ62KrgObxi6n/Rh2pmYgEvA8wNfEgna9QbKIWCHi8aYZAJ3h6+phxv+pSdgoGFMnU6PNV8Z/T/kZcP2lz0tMu6b6ahCHP6UjNDGqUOVnNmL448Tqri23GpddWLF+vR5RMbciorgx7U76BqTEIpmYDNt6raY+p/Kyd6meLmVfK5ou8cQBTEw+S/5FiE3XU8zdNjat0htJ+RE/ylRCZKBhQBFOjTYbkJ9J+PkyyPd3sLXl8MPXdZAx5Pkdq+DMkU6KaOU184Vkri23GqTtmz+r5wPiOfFVWU1yEvSnfwNQYBFOzAekMoT4S0Tjww8Kt2cXKOjWBLsAUtBCYGvt0DtmZYhJtZX59T/Lb9gi32Bw6+IHVe6Nh/+qR5K+wtrZ3hltNL3k2Nfq9Gb/8A7o2T6c2xjHVrI/0aD/fMfzm+MmnqXFepEaZk9UMSZdgXrV2rdFIpEFLVq9ef8nUKWv/Swnj/mdaSgwNe1O+gakxCKZmA1KcRX0k2k3Pc46jLdk3DT7fi7Yf3dRIvoRuuvuEWy02MDX20aY5enJ8W2JPureEFA9Hvh5odfBvpb6P5M3U6BFpyb9G17qxzBeLjftqW7qvyJZvJHqsc/pOzTxqlDlZzZAqTzya2lGamQvm9xw0YUx+173RFfSKAEyNQTA1G1Ctx1BMohmHDv5N2pJ9U6NvlIq/bvzOeiWd+2J79ydLwNTYR4kZFJOIDwbEt1MR0+qUz+iJvp7WmvaCAVk3NaPadqLr2lfCqnt3k1Ya9y9OSc6p3yZ7nHM6/Ww+yZysZkS7jBuxZvHqVUZD0UytXrt2/bCZ09Ztm/t1b5xRYW/KNzA1BsHUbEA6n6aYRDM11UqC8UzvUvxP9B2Wpk84Nxfe2MDU2GXE4M9QTKJWDXuNpWV9l07xHjq+0V8mD/pYMDqa3mmfaTY1evqYfldRDTmUVcrH0T3r+3RctHkZRSID48yifY95WtlWdRddB5I3BhipSadK0x5IXRnnFxa/2XP0xOvzOzrTVxipKbBgajbQ4XyUYhJ1iteZbH1MyYvHz6M+bPHmTcamNeHFDdMETI1dFPcpJtHOHym8VL1Yr8Q4UvRpn747MNUFA2yZGl88Sp/TG5IUZE60+Ov0+YaV/UlGz7Fx5d0oismb1nyammy/U/M/ldY1c5cuSVUZZ12qeaexw437m0vhnZoCC6ZmAx7dmKImML74SWympr3l/XSzX2783kYl+fP0qRffTe9T5LiAqbGHNsdSRJ8e2eF8LlWFLBQ/htplY82auWzcuBQljptgy9QUTVL8mw3je1EEm9Nnczr9LNPVz376tztTM0qzcOWK9WfcMylPpZprE6qfFVgwNRtoL72bYhLxqax7TqxJmeTjSXFMtbieqaHFKiAAU2MPPUIZNZYe/zfrPCf+BQvrQR/bqvGPfs51Oientq/A1DQg9wkmB32Iotc8E55LU5PhdWreRnp84fxUjNLc9/Lsnr2v9Ysx3ay/sE5NYQVTs4EsmBrVckBwzhq/O6L0dn0xpjDmBqbGHkr8jWIZLfHX96GuAemboqWcqyL3Ey3Jb01twQCYmno1jXW4H6DINXdUMafv1NxNjTIlqqnX1/58Y9MX21zevWb9ldMeWPv2PJZqrlV6dd0iYMfUjIttehHYPNooVKdffYJ54ggm3W8EL+XrCkXVKkW/3PBnxb8V/I7i+9R1sc6CqdEo4VN743sxtnpduI5Vyp+jb8tvX4epscNo92MUi2hTtHR/9gfuR1tLX3/z2val/Vtt3O/61M281j1pi+lrI0xNbaped0ew20rpKGaR0+lnN5D6J6oZ0L1zX2zqKM1jC+f3HHLD2KKOzvSR852wN+UbmJr009n5DjIjh1Ky+GM6XsNIk+jvT9HfGy/RqV88Vfwx+vP11Ncvpc/jg3VfNjUfWTE1VXP3ivn7LUvyf1KbfkTHJR03cZvA1NhBupxiEfVdtPspjukte+xZGImq6opUFgyAqalB/E2mygPYgBSNJuZ0+pmkRhkS1XTrsBvHNW2URpdqHjrz7+t0kQLTvhVOHYP1i8L5B6YmfejVtn3xZeYHidEjlCTaeCJaq5aSptF3jqF9+Ckl70fS39NvajSV1hOpPyeXhOjStr4YxTrFEfTt+ej/MDXR0Q8hPDHPGJt6JN1zUx1HxX9E+2mhYIDzYipLqcPUbFnSuYn6wD6JXNvrIaem5vfUKHOymmJd/+yTTVlsU1daO2FyF0Zn+qq95ZNhb8o3MDXpoGpkTqVYTiSt6BPbHCghU6PRi73FOQ1t83qGjt/lzG/bI9yTbAJTEx2ff91CDFdSov/+cIvpRI/i2lizRst3Tkhdn4GpMUuKR1nFPTq153guTY3vnk6NMierKdWHr5HdK7q7jaYjTnU9//S69xWpVHOtKpWaswpw0sDUNBf9PoxPSaASizeJaY6UoKnR3xNMqbO1IGfd6mbKmUj3oBNSNSWjVmBqoqMfTEQ21vxPFMN0r7iv0ZUHI4/kkqS4KXXthanZRPxxOk5nBSORaSaXpiZ4adaQqKZYbTP+nugozesrV6z/yZQ7ilequRYpPpd6UTGSdJia5iDF50mTKHbRE4LUK0FTowneQWqqsQnFXyJzc2WmRm9gaqJRGbw7tb/xd916JcUpmYihrTVrFF/FhlLs0gRMDfVDMueS38k857jMnNO5NDWVoXRhMSSrKdW7Rw9ds2DlcqP5iEMPvDKn5yN/qGC62eZ1P/UimJraBVNTK53iwxTz6ylmBTAzvUrY1Gj0i8fVm1uTjU2gbuaLm+jzs7Rn6T5PYGqiofivqf0R48cXsGtatw+3mG70cdYr3ttYs8bjv0pV+epim5pnqS87bOTA/RO/dkcll6ZGoyhZMyesqdPFD/81kcU29fS2wpdqrk0q7EX5B6YmGfSNoSIuonjbXf0+E2qCqelFOmdR0pWemEv+IPPL30xltScNTE00lNAVBaNOPfNT2z9M2FqzRokZqZraVDhT4z5F7eWsMvhTmTMyfcmtqcnIWjXv8N01Lyx+M/Yyzv9a+FqPrq5m2gdoUzk/C3tR/oGpiR89JcXjd1Gc0jBq0AQ10dRoZPkguh88at63Jkly/ST0PHZD2zvDvUwHMDWNM2LwZ6j90adi6enzWUoq7a1ZQ32n9dOpaXueTU0wgk0mRhtoJU5LxaKZtsjvSI0YSg0zJKzp0hn3TIp9lGb804+v237UEOP3QwZ5g44Ke1H+gamJF698CMU4mfVTUqsmmxpNV2kb5jklOhbpqiyn19aR4qLUTDeCqWkcKTxqf7RppZI/x6an/EVsE9KdQvse/aGNdDzqO+koGJAXU1OtUPdwcF764nzmt36RXd3xPmphPu/Z+R2p4WeQzElrijRt/iuxjdLMW7ak56Q/34jRmXqkX1gcVnpv2IvyD0xNfOg1XqRenMwYswIpBaamF8X3Id1C+5WyUTM+l0zX6RSn5poBmJrG0AmQEq/1i0Xdcq5K1XsltaIXBrYxSqXEQua6O4RbbS6pNzX63sJfIP2TdA/z+ARKxocyn/+SyZZvsHZ+GGst7UItKda9Ocfv1OxDDTMnrinRsbf+MbbFNie9+FzP7ld3GL8X2qL+Qb2nOBcBmJp4CKqbFfH9GZNSZGp6qSbvf6H9S5e50UVKPGffcC+TB6amMfQaUzYSYD1So8T0zEmKJ2nf7ZxLHeK0VPQfW6ZmRMuRlI8e1rjcj9GnfhizDxvVsit97pi662mayK2p0Sg+mxpnSlxTIW08TIYkihavXrX+ggfuRqnmRqXE8LD3FAOYGvuMaN2b4vqqIU4FVQpNTS/V6YEVulcsNe97U0T7wpsTM5iaxlB8MsUtZaN/GZUUd7ApKZiCZsvUeF4x1rxLC7k2NZLfQDInr03Wx64f2b167VqjMWlUD70yt2e/6zox3SyK9BO3IgFTYxev9C6K6ROGGBVYKTY1vXSK9zDPOZ+O3ZPmNjRB2hy0t28b7mEywNTUj16HSPJVxlhA9Uv3v2F8L4psc68ZMDXZJOcjNWdT48zJa5M16smZ1hbb1KWanekPr9OV1EzfBdUo/T7N8Mt2DXtPMYCpsYvnjKB4JPPEVvL5lEDeS/12NP39Kvr8OZPuN4LqSXragif2p8/qtIVK+SPBz6o6lvnOCWTgf0p/dmg719HnQ7SNhRtt35oyYGp60fupX6RVvIv23U5Fpyjy+F9Ze+nd4d7FD0xN/SjxW2pz9OQXeku+uLzpZa1harJJrk1N9QmKOYFtonYZN2LNktWrjQalXj236I2eL9x8LUZn7OhB6jXFSs5hauzh8aMonvElN5KSbMknsQ5+NhtKRiUOdPlpX3yZvu+3zHen0vdZMGgZMjV90WVOJb+SNNfcroTk8amsrW2ncK/iBaamPnS/VkKP7mHqmVXxZ8nUbBNGuTnA1GSTXJsajRQzqYGmBLZpGviPB62M0uhSze8a1Wb8DqgBec4VYa8pDjA1dtBJnIpr2hkl1X7LJaytlExi25dgtCdimdqsmppedIlZKU4JRk2alrzyvyUyFQ2mpj7koM9Tm21U/YI2lc+/2NTrBkxNNsm9qdHTMkwJbJO03cgha/6zfJnRpNSql5ct7Tn59ptQDMC22vmhYa8pDjA1dvDLX6dY2k14JV9Anxey9l8k+15FX/TUp6Kbmr6olgPouCgyGU0oLOBWYjcLMDX1ERSZiHp+QGbxscEDhWYBU5NNcm9qKvxAaqA5iW2CfnbfXZEW27z9pedRqjkO6afsRZt6poGpsYOeumiOTWOS/E42rrxbuPXmAVNjRhcW6HAupOM029zmmKTfmYozljA1tdNZ2o7a+nq/9kN2JPkSxvmOYbSTB6Ymm+Te1GgUf4waaU5mE9R/KbHm6TcWNlTGWb+Do0s1v82wXciKrgx7S7GAqYmOLB9EMbD4tNYZ0fSXZHuBqdkynZ3vIHNzJvP4U+a2W5YU8+h+Fl+iB1NTO757euRYQVuWXtSzWX0JpiabFMTU/J4aaUpkE9U37vhTQ6M0j772as8BE0ajGECcam/5ZNhbigVMTXR0pR5rU894W6oMAExNbejEq4N/k26GM6nN8b534/HBsSV6MDW1o8Rd9s57yCi9GK1+cNAMYGqySSFMTbUK2kqSOaFNSPe9PLuuUZpVa9euHzZz2rptKmXj9iBLUuI+6iXFTMphaqIj+VRDTOqXdCamZoSmF5ia+gjMjXMmtful/nGwJCkWsY6O94XfaBdffIb6c1RTMyb3pqZz+Ieprc0v+Z13BabR/RhFPPnrB0xNNimEqdEoMZEaak5qE9DhN47vNhmXzen5RW/0HHXLdRidSUY/CHtJ8YCpiYaeCmSj+pEUrzLVuku41fQAU9MYbW3vpBvjpXR+LTfHJKKkuCQW46CGHEr7HC0h8N0/sq4B6TLntpHiMmpr9IQX2rp8d2BTHvbA1GST4pga9yRqqCmhTURdzz9dcxnnCc89tW7HMcOM24GsawElB8W96MDUREO5R1IMo09B0QthpnG0EKYmGr67H8VgCsnuNCXpPB6LcVCturpbRFMjbs29qcHaNMlJOrOasmYNTE02KYyp0U+1FH+KGmtKbGPVXteq7pVru40Gpq8WrFy+/nt334ZSzUnK5zzsIcUEpiYaFUrYo5uaxcx1dwi3mC5gaqJTnZJ2IcXC7nQlf+DBtHW7ce0c8nHqz1ETuXtSN43SJmrwZ6mNWJsmUbUek/iURpiabFIYU6ORzrnUWHNyG6PaH/vHVkdp7pw9q2eP8R6mmyWr5UwO+lDYO4oJTE00JG+n9kczNZLfmNqkH6bGHrL8FSaFzeloF1qPa6X8EeqPERMCPjXXpkYKj9oZ8ZwgSX47fXblV3Rds2EKtKrvaSW7Zg1MTTYplKmp1pV/hRpsSnBjkZ5G9saqlUYjo6VLNV8ydcpaXe7Z9P+hGKUX9yo6MDXRkPwGan/EkRr34tTGD6bGLh3OydRn7CR6OnG0/fTaK+8Wef88/lhuTU17+7aUQ7xmbHc9ks6LbHqTqnoliRJ/o/4UfZqeLo4hxHvCrSYDTE02KZSp0VRf3jQnuTHoskf+ttkyzjMXzO85+IYxGJ1pjlayES0fD3tFcYGpiUb1aaspJnXIPYm2BFNTFBRvpX5jI9F70bp50DfyqFOrJH8ht6ZG8W9R+yyYUu7k/r0jTaV8HrXXzlQ9z/l+olPQYGqySeFMTWvr9nRBmUuNNiW6VqVLMc9esrhfGefVYanmbVGquXlSfHTYI4oNTE00JH/AEI/61CmOCLeWPmBq7DPa3YEMycvmWNWlbjZunP0brxJLN/me+iTFStastUXiRpddt2FIR7UcVIhr5jWtu1C8VhpjUL/uYp3nJNevYGqySeFMjUY5F1KjzcmuRf3w3sn9RmleWPxmz9ETr8foTHO1nEzNPmFvKDYwNdGQzqOGeNQpfmi4tfQBUxMPSpRI0d/L8Nr2DbdoD8nnGb+rHvmD9wi3lh90yXVt2EztrU8zEn8/pJlI8Wdqc/S+rhNVb9CetMVkriUwNdmkkKZG76zkz5BMCa81TZ//n41GaXSp5p3GDjf+LpSglBga9gQAUxMNyR8xxKM+6VXc0wpMTTyMEp+gZC96wlQZdBRtzW5spZhJ2442GqFHH/N2TVDiAivHzI9pjaG0ooRejNbOFDTpXprY1EaYmmxSSFOjke43qOHmpNeCvjppwobFNheuXLH+J1PuQKnmNEiJV9mQ0s5hLwAwNdGQzr2GeNSnivsl2lI64wdTEx+Sv2KOVx3ynOOsx1a5k2nfIk6x4j/PXeKu+D/I1ESderYu0dGGNNAp3kPtXrxJHBqU+0RiUxtharJJYU2NRr/ka0p8Lej2l54PRmnuf3lOz97X+phulhYpfk549IEGpiYannMbtT9aouOXf0hbgqkpGjYW5ZTiFPumhlfouhDV1IzOlanpaDuQ2hV9tMEX9xZq6lkv1TLP0aegaXmt/5vI9QSmJpsU29SIT9DFdykFwJwAN6gDJozuXt69Zv2V0x5Y+3aUak6THs71+gmNAFMTDcmvo/ZHNDVOS2qTfpia+Kiu4xGt73jOd2MwNb+nbUc75pI/m6trree61C4LSbl7dqGmnvWiq8bZmoKmKGlNwhjC1GSTQpsajedcQQEwJcAN69KpU9Ye2jUWozNpkuIrmFc+JDzqoBeYmmhI0ULtj/q0/V6YmgIi+R9JEUdE3JOtx9ZzTqdtR0/gq0UMsn/cdQIt+VxjG+tRUBWuoFOf29reSTFY2C8mjUjy14IqtnEDU5NNCm9qSqVtKOGdQUEwJ8MNCKMzKZTPB4ZHHPQFpiYaFXEWxTCqqVnOXHeHcIvpAqYmPiS/k459tL4zgh9j/dwbWT6E9s1CMid+m4tRCTX4eCvxUPxPhZ4poBe7tjLaRaqIU2LvWzA12aTwpkajS6oqvowCYU6IoYxLzAyeFIH+wNREw+NHUQwjPm0PdCZtLX0xhKmJDyleMMerHvHDaEt2Y6tv5oqvMn9fHdJT0KZMyf77I9UpphZGrsS3c2HyGkWJr1Kft1QFTdzMpsQ8BQ2mJpvA1IR4/NcUCENCDGVcS1iFHxgeZbApMDXRGNW2E7Xfwo2a/zOY5pI2YGriwXP2pcQs4o2XzPS4Ye8Nt2gXxZ+i77Bg1vm3Mn3sh1F8ZcTFSLWkeINd8+v4p0ylGV21THEbi86SyHR75d3CLccDTE02gakJ0U9QgukAxsQYyqycc8MjDEzA1ETHygKcJL/8A9pauuIIUxMPejps1LhKMS+26Uy6epmNEUjJn2Dt7duGW80eip9NbYie2EoxCkVqCCVGkKLHU8sTF7CuAfHFFKYmm8DU9EGVdqHGvEgBMSTHUAb1h/DIgs0BUxMdxdsoBhYSQLEoeIKfJmBq7KNX25fi9f5xqlPSuTu26Uxey6n0HdGnXGlJMnBZnXalxN9o/6Of28G7TzgH2IiWI6nv6/XizHGqS+7fg9GfuICpySYwNZvgi89QkmK9zDOUtMSjiVRIyTowNdFRQr9IbOO9Gp0APss6xYfDLTeftJsaPQqg+GS6CZ3FhpXimYplk+B9FQvr0wTiv4vNLOhplZKvNn9v3eqmfR3QlKReT+mslD9Cf6r/u/X/0/cSc5tql8fnsK7SNuFWi00wI0bMorjYuV6q1gNi61cwNdkEpsZAdcjZkChDmZASr4Y3MrA1YGqioxMnZaHk61uawyqtR4Vbby5pNzXBQ6hw/3TJXOncxCotujJS+m5IwfsZesFnSwldZfDhtNX4zjvF/2ptX4PrMt1XkxqxGdWm31lqIc2j734wOEfrRYkSKfpolRTlWKdJZQ3JOcUkulmoSsQ2rQ+mJpvA1GwGxV0KjDlphtIrXcVO8WPCowi2BkyNHTw+2FoCqKUvytIZxUaKD4bf0BzSbmo853yKlSHu/E3mO2PI4HyJDUhBQtnhnET9Qz+h3mQ/GxV/KfbKYpL/gL4relLfV777RzY8ppFIXeFS8jMoNmTGeJ/95qvYNXWO2uv+qviz9P+jn9Pt/NDCXx/7IlsOouNjZwqaXj8orgcYMDXZBKZmM+iLmuTXkMzJM5RGraab5unhEQS1AFNjB8X3oTjYmq7zliRtUy/S6DnHNeUim3ZTo8TVWzeTuuKSvtENPpESoOQSDD39VfFz6Pg9Tvthz/BqSXF57KMenaXtaN+jv/uzqfS6TL4YE5RDj1qWV7XuQufGd0nXUiLyhvH7tDr4F+vqg3rfrFQ1dB5vaJQo7yg+nfqWnXPCKx8Xy7kAU5NNYGq2QPDkR9xNATIl0FDq5FwUHjlQKzA19pC8QrGwm7xuJL6MkrfbqJ+fS/o06xTvCb/ZHjo5aBcfpO/Ta0pcQp8TSBHbFKOpkfzf5u/cnPgqit0USlpbST9kFffwIHm3geI7UluPpO+5gpL2u+lz2cbfbUvUhsrQ3cNvjRfJh9F32h2t6Std6ljxO+hYCCbdnwUGRfe96ruth9Hf/5c+j6WfHU86k/Rb0nDSHaR5JPN2+6nO948kH0n/L3q7pXNZ7OYzi3juryjG0Q1DVdfGYhxharIJTM1W0De86nC2IYmGUiOdSID6gamxR4f7AYpF9DUt6pEUrwTXJ20+pOikP7eRBtNF+dK3JFro38UGafOlf7f6+yPp82b6fIg0NzyXzN/VsGIyNdWX2W0lRgspDk9SDHS1q+vC+Ayhn+uYXdUnloOCn0muqrHjk+hTj8QsJpm2a1/6HY2kEuXK4N2pjUuM+5Ep8ck1v3sRjFAJGyNU69jIQXvTFnFt3BRtyiVfaYhZA+LLWFtpp3DL9oCpySYwNTWgq+pI/neSOaGGmiv9/hNoDJgau0hxGcU0xtGaLComU1Mpf4W2H98oQhqlTWxcC25uDuU69N3ZjrOeRldr+V/f/S79vg2zfF8sIwh5weO3U4zs9Cspfmzd6MPUZBOYmhrRxkZfpExJNdREiZbwCIFGgKmxi34aLPn9hhgVWDGZGsV/T7EujoHUbZXilNim8m0OPa1Ov5Bt2qcsaQQ/mFqz9dgFFeos9CvpnoupZ1tAv/9q5b0lkhRTajattQJTk01gaupAv/hZveAZkmsocemkBkQDpsY+Pt+L+qb9F6wzq7hMjbiNVCBTI4Y0LUn2nBPo+22MXjRPvvOzrcZvtJ5CylcZ/39d0tso7RJuFZjwSu9ivn6nyhS/urWO+qheuNjedQamJpvA1NSJbqjk15PMiTaUhJYHL/mC6MDUxIN+YVz3U3O8CqbYRmps9N1sSLq3U0Le3AUcg3ewMjwNTfI/bPW9GsUvpt+NnshKMTG29VPyhOJjKV6WpqC5V1qNOUxNNoGpaQB9g9YvppsTbihO6SfgurwtsANMTXxUWk+s9lljzAqkGEyNCkpoF+N9Gt+901qFtigED/TEFFI2R8ek8yIZwy2/46LEDFL09vniVEw9qwFd2U4KW9fI51h7+7bhlqMDU5NNYGoioEcLFF8aJC5QEnqaeWL/MPrABjA18dIpjqcYJ1cZK5WKwdTopLEYpuYPwdICaaFacc7+ujtJyRu0Z9iS/ugS0lbe8eBvstEX7xBuFWwJPbKixIskS/3JPdLatQamJpvA1ETEKx9CAXyWZErCIVtSYiLdLHYMow5sAVMTPx38QIrzC4a4FUSxjNS0UUzz+z6NXnRViQusx80G/uA9aN+mkzIYf/69zY6gSNfOmjySroeYelY7Sq9RZME8aEmnc6ujcbUCU5NNYGos0FnamU7MyRRIc0IONS7FVzBP/DaVN/c8AFOTDHqhTI9LipWdm3emFIOpkUJXmMunqZH8H3TdO4xamd5zSr/krR80Zc1YSuGxrgH9DUdXaRuKuZ13tKTzFdyv6qD60MfOFDS9mKvr2hklg6nJJjA1ltAXMcXPppNqUXCCQtGl+HPMb/lCGGEQBzA1ySLF5ynmUw0xzLFiGamZTNvOl0GUfAHpF5l5yq/30xeXUJ/ORkEMnehsztR4/OvBv5v+Xz2S/OXAIIH60EbenkE+zcr7TDA12QSmxjKq5QAKqD5BzYk6VItWU9Iy0toTF7B5YGqag144UroPGGKZQ8VgajRy0IcoSdVJ9Uzz92ZFdA764jeZTX5GDvkotWMKXUvSOWojxTwyLYODUuubG/2S/Eb6XQvvaPE2o2kCW0aJC+kYWHpIwSezznOir1kDU5NNYGpiQM/p1E/c9AuD5qQd2ryeYR3iy2EkQdzA1DQX/U6e77ZTDBduEtNsSvLZlET+mf4s6Pr3PSbLBzHbi+KZUHwfMgbnB5XClFi50T6lUfqmK7ne19PYDSkqBBAFPe0qLeZG8uepPwwJXhyfMmXL71h0DtmZ+qyd0aYO93BMPWuAytDd6RxeYYxpvdJ5RLv4IG012nGAqckmMDUxUil/hII7iWRK3qG+CqrIiUGpqvRTBJQ7kk7irkiS7s9oS7iRR0GXIq0mhUMpGfs3fZovts2W5EvoXNXVr/TClyPonL2IdAr97DA2bNh7w9Y0l2BRv/I3qW+PpljO2mj/mytdKfNWplrOYyODpCufdJQ/R315KLX1eWpzUganm473Q3S8L2eq9QDai9qvR544gv7/BJL5+larJK+gQEAEJB9I95IbjLGtV5WWL0WeglatsBi9XyA5ThbZ8mOKe9TjNi6Rh3GZxaMTTPEZdNKaE/qiS/Fb2MjWvcNoAQA69Mrm7smB0Zf8dpJOEC2UmzWJLyO9QN8xlTSJ/jyWPjnz+K9oH74frAvl84ODcr5ZRE9T893Tqa2S2vZXium8/jGwrKB6GX+CYnctxfKXbETLF1j7L+ytoZEV/NZPUj86L3h44gcV0yys1q/FX6a4/oXMU5lVWr/GRmOqMgAAJId2fdI5ly7EL5HMyX3RpBMM1XJkGCEAwJbQ1xDf3Y9J92hK7E6jJPF8Oo/+j/6sp3pJSqQ7NxbXJWrp30hSXEa/c17w9NFzvxRMe+sUH07Foo7NIKjexQ8NjeNZ9OeLSa0kvcJ5F31Opp/fXRX/O/1MJ+RVvfVzPQo/nv48hHQZSW/nGOa17mnlReU8ovuwjo8uAFN9En4h6SqSLuvbTjHs23/1tEzdf0sU13Po71+jz8PYkNLO4dYAAAA0FT0UWX3fZg59mpP9/Ot+av+xYUQAAAAAAAAAmaRU2oaS+zMouS/GtDTFV5FuCabiAQAAAAAAAHJEsL6N+Col/jeSlm9kBHIh8QqZmdZg2gwAAAAAAAAg53jl3cgAXExG4FGzQciMtDm7ldoyIKjqBAAAAAAAACggnS0fZ55zBRmD6WQQVvcxDGnVEtIk5vEfsrZSNqskAQAAAAAAAGIiWJhKnEmm4ToyObP7GInmqfqOzAzar6FBydeiVlECAAAAAAAANIBe06W67sJwMhb3kMmY38902Jbiz5FuYX5QQvZ4NqyUjoX2AAAAAAAAADnBb9uDyZb/RwbkB2Q6rmDSGROYEF0+WfIngxf2A/Mj3ghMSnVKmzZD8+n3ZpNmkO4h6dVU9Urhv2G++DaruIez9tK7w28BAAAAAAAAAAAAAAAAAAAAAAAAAAAAAAAAAAAAAAAAAAAAAAAAAAAAAAAAAAAAAAAAAAAAAAAAAAAAAAAAAAAAAAAAAAAAAAAAAAAAAAAAAAAAAAAAAAAAAAAAAAAAAAAAAAAAAAAAAAAAAAAAAMgKjP1/1o4ed18oXWoAAAAASUVORK5CYII=;" vertex="1" parent="1">
          <mxGeometry x="470" y="180" width="279.9" height="60" as="geometry" />
        </mxCell>
        <mxCell id="ehs7xjd948KIHO_ivZdt-17" style="edgeStyle=orthogonalEdgeStyle;rounded=0;orthogonalLoop=1;jettySize=auto;html=1;dashed=1;" edge="1" parent="1">
          <mxGeometry relative="1" as="geometry">
            <mxPoint x="613" y="269" as="targetPoint" />
            <mxPoint x="613" y="369" as="sourcePoint" />
          </mxGeometry>
        </mxCell>
        <mxCell id="ehs7xjd948KIHO_ivZdt-7" value="" style="sketch=0;outlineConnect=0;fontColor=#232F3E;gradientColor=none;fillColor=#01A88D;strokeColor=none;dashed=0;verticalLabelPosition=bottom;verticalAlign=top;align=center;html=1;fontSize=12;fontStyle=0;aspect=fixed;pointerEvents=1;shape=mxgraph.aws4.sagemaker_model;" vertex="1" parent="1">
          <mxGeometry x="584" y="380" width="78" height="78" as="geometry" />
        </mxCell>
        <mxCell id="ehs7xjd948KIHO_ivZdt-8" value="User&lt;div&gt;Interface&lt;/div&gt;" style="text;html=1;align=center;verticalAlign=middle;whiteSpace=wrap;rounded=0;" vertex="1" parent="1">
          <mxGeometry x="272.84000000000003" y="250" width="60" height="30" as="geometry" />
        </mxCell>
        <mxCell id="ehs7xjd948KIHO_ivZdt-13" style="edgeStyle=orthogonalEdgeStyle;rounded=0;orthogonalLoop=1;jettySize=auto;html=1;" edge="1" parent="1" source="ehs7xjd948KIHO_ivZdt-9">
          <mxGeometry relative="1" as="geometry">
            <mxPoint x="625" y="370" as="targetPoint" />
          </mxGeometry>
        </mxCell>
        <mxCell id="ehs7xjd948KIHO_ivZdt-9" value="Web Framework" style="text;html=1;align=center;verticalAlign=middle;whiteSpace=wrap;rounded=0;" vertex="1" parent="1">
          <mxGeometry x="570" y="240" width="110" height="30" as="geometry" />
        </mxCell>
        <mxCell id="ehs7xjd948KIHO_ivZdt-10" value="ML Model" style="text;html=1;align=center;verticalAlign=middle;whiteSpace=wrap;rounded=0;" vertex="1" parent="1">
          <mxGeometry x="568" y="460" width="110" height="30" as="geometry" />
        </mxCell>
        <mxCell id="ehs7xjd948KIHO_ivZdt-18" value="" style="rounded=0;whiteSpace=wrap;html=1;fillColor=none;" vertex="1" parent="1">
          <mxGeometry x="210" y="114" width="560" height="385" as="geometry" />
        </mxCell>
        <mxCell id="ehs7xjd948KIHO_ivZdt-19" value="" style="shape=image;verticalLabelPosition=bottom;labelBackgroundColor=default;verticalAlign=top;aspect=fixed;imageAspect=0;image=data:image/png,iVBORw0KGgoAAAANSUhEUgAAAJ8AAAB+CAYAAAA6A8PHAAAAAXNSR0IArs4c6QAAAARnQU1BAACxjwv8YQUAAAAJcEhZcwAAFiUAABYlAUlSJPAAAA+ESURBVHhe7V39r1xFGb6XlpbvtvqbiQn+ARr+AIz+bjT84E/GRE2IiSHce8unlFgoRb4SQlEClCJWjUKihpZ075aWll5bmhJEykfLlwQEFKyK2k+KNMd53pn37Jw575ydc3f3nt2975M82b07c+bMed/nvPPOzNm9EwqFQqFQKBQKhUKhUCgUCoVCoVAohg3TrT0T07NZfba/6lpQKOYJFZ+iMTjxLb91/zuf+fmbWTdOXv3kQRWfoj8IxHfhT1/KVj38OnHF/a+Q4FZuPExU8Sn6i0B8eA8BgktvfJoEd+7tB4gqPkV/oeJTNAYVn6IxqPgUjUHFp2gMgfggOp3tKhYGgfi6UcW3mAAnk7OHjSq+8YeKT9EYPPFJw2BIDJ+ou+S6HUnDKOqhfuPDLg3/rcvcX4qhQCA+TAjOv/t5eo9XngjwbDQUH+rgGL8OjuE2QvGhDk8wuA7PfvF+IOKbbt3M12i4ZWL68ZWuRNEoAvFBHLwEglcWBZeH4kMdFh3XwTHcRig+vGexLchSy/S2S2x7HmdmX1YBDgPGXnx2to1zXbDhhWzyqu3UBxXgMGCcxedFPU4fsLaoAhwWjLX4WpvR1rK1c9Q2syBA5ICKhjDW4pulc2O4Rds+8Zk9D6iz4GYQiA/DE2974RXbYHjPIgzFhzo8pHEdf+ssFB/qLMj22nT7Yr4uvoaQy9ftc+Jrv++OUvQMElQqZ2fYSRyRqnj22rkPUfesa578UCoPiXqoj+Ok8pCTq7f/2fXH9Evqb4Qh6HNzk/xwlyg8EIJ354IAe4+0CoPcoIuIIdzaHg/tMXai3+wGd6SiJziHIOpg2KsiRyZQKg85ubr9T1f/uFQeEvVQH8dJ5SEnpmaPon5K30HXl6j4OJeMkXO/yZntr7sjXdQEzWxZURPOIRjGJIP7RB2uL5WHDHO+bmSBcM7XjZzzpfQd5L67K+8gUXzFobeKLfRrgw7P3eAMBgciqeehB9tZvKV1zq37qSwUH8pR5tfBe24jFB/qcJtcB8dwG6H4UAflfh2/X774UKeq73jPfXdX3kHisAvmbSQTQtSoKMMZCQ5kccHI/pIGnOKX+3XYYVyHHYTXUHyow21yHRzDbYTiw3s+L9fx++WLD+Q2/Tphv4ghEiYcxEfeyJat3ZOdf8f+7KJ7nstWPXCwRHyOctTLz0c0AlcEcMZJcSCX+3VYFKGT8TpC4suXWngZR+TDr4qCi3HFT55HPurO29rjzqbI4Yye4kAu9+uwKEIn43VkxAdMU56WnXfXc1S3RBP1Vj34kiiyGCG+/Jya/wlwxklxIJf7dVgUoZPxOlris2uYZ127Q15o3nRIFFgVl97wFJ3PzN4PuLMoCnAOSXEgl/t1WBShk/E6WuJ7fOXEVOs/KMd6HurnpKj3oiiwGM9Zv7dzPp1wROAMxA6qIjsYlMpDhuLrxlB83eiLTyoPyX13V94BPdHS2sziAwu5X82ohwlHfi6daBhQUo0lhZDWSNjSgtOryNtloFQecsl1O99HXSwaS+UheVEax0nlIU3dv6F+St9B1LXMr3+PLzgQwy4vzRAfeT056q2870/Z2TfuztuaXD37G2f9RQ5vX1ZZJh6lkp5oWfXQK6LQfGJ5BUsrk6vzR69A3YLLMdVaB6Ng6r/0hl3Z0jW7KR9ajOScEDPbyiH7Z6/lAsNQijwOXH7zHE0meEJRZNtEe53ZFnHF1vUwDoxHBt34smxwZU5eWsFwGkQ1iVvMMK7P+okoiS8tSV+03HS4EPVgO5OTHvHyRfAyncmm4MonbimIzyTRotGVpUmGt0uhM9d5weV8ufgMRcMraVRgG3WWTdon9QtE84UkPpNQS8Zf1PSGW5Cjni6b9AInPqxD5eJ7+FXZAYuVwXBbXCxuX+wsqagN99gQlgdy8W06JDthkTJ8cEBzvX6BtpDsXZwb2BhbcsKiZLCFhvTERTzN9foCJz7/QUhsmovOWEz0FpNBPArlrevNOOspesJUaw4GRS6Ti2+x533C3m3+KJT/RSFFj5hq3QujYh8yN/ZD3iZ6n/mVre9m+z44mTEeffNo9oVfvyXWbYTCA6Ln/fgZjniGuoDcP9CKPJYNtncMjsXmAQ297x77H4nuqT88k21t76T3EKNUd8EpCA/pSEd4OsnoP9wjRBfcdSA3+iCG3q+33yexQXjf+Pbl2eUz12fHT5ygz4Yh+vkLySD2bztrevrk8WBw5bZfwMCFoXcA+7wsvuk160h84KZfPUqfoUw6ZqEoPSaVP6Ey0z6hs9tBwa33gbjb2fj93u245LfvkNAQ7SDADRsfob//e/qMWH+hKAmv+DVHfRxqsJhu/QWG9rfaBhH9Hjz0bxIcD7fAFXv/LtYdOJHjBUMtGAjvu85CioFh6onvwdiYeAwy+oEYYu984V9EREOpzsApTC7AovB0grFwcNEPT+XmDulh5nvBfS9kKx+q+MJ1U4x8ByMQ3mZnFcWCwC27gIWffqg5/J5/7/PZklt2ZRM3zmZLb7VfbxwaBk+oMFV4wwC347Hkup2F4bfbwjOi3PI79mWTP9pOomN+87GDjc9kiZTfvVwQHIhrxLV2hKdbZ80BjwlNtexv4l3dypav25Gde9tuyzv3ZufefSDnstvm8gjn86JbdmTT2w5nb39kdzKwsNzoOh72aYVh9sK7n/X3aw11ctE8vOF34qqt2cS1v+/w+i0lsYEr1u/IvvO7F7PHD39IgguBbTRRGIMkcjthNgt2nlAxnGkd022zYcL0tgfYOV/buD+79L7dOb98/55s7VOvZTfteoPExhGuG9Y8+w9ZJP0mRBf5bi2iXXGYbbd0AXkY4f4PBXjH9teyo0eP5jx27Fh2+vRpJ6t0DHRNr0J0eCSqMKmgXQvN74YbngC/tfmP2XtHPiqI8Pjx49knn3zipJWGvgoQy0D4jTxhzQ7EhAJDbJDb7aPcVjECoN8Sto773NpdWevF9woCBBEJP/744+zMmTNOYtXATocophSaCEeCE2avTEQ6rFcGotNfDhhJYBLi/YAOouAr7x4piRBENDx16hQNy59++qmTWxl4lKrrDgciG3ZZsD6HITUS4Zh4Msf/YR5PdDqTHWnYX7Wi/8LIrBKhTwjyxIkT2cmTJylCMo8cPZldv/ev9otLjjRDjcxSJUJwyOeKUc5wpn1YRTdusE/BeD8vNptdes8z2QNzbyYJUeLhDz7Kvv/kW6K4QmL3BU8XI8KVBEf/twN5qi6djDcQVYJICH7x9rnsB48dJDFK+WEVIcJrnn47+9IvD5HIsDSCCQP/ClR4LiKt00FwJjVQLDLQcIxJif0B7RgRHbvx8zftEo8tE6LHD/PoBELBICEiIs5u+OyanQeXXdU+VRZODdI/VM6FZtrV4VRRF5QnMrF9BzHlNH/75SowhUKhUCgUCoVCoVAoFAqFohJYQxuHdTS7mK27GyOD4j7s6P4rJruD4q6jddB9qhha2P1XFp7lqCJ4ooZ2SBRDDNq28h1mOKoIrwNbdIohhopP0RhUfIrGoOJTNAYVn6IxqPgUjUHFp+gr7FcZ8SRw6Us85jN8n2JDvpsxH/HRMfTFHOG7GXTOmZ5+58QuFm/xvw/siHW8LVQuoVjXMFF86Ctskp8v0r4P+9Q1frWhuLZIbSTawPrJ+ci0xbD9McebMtEGOK/xwVCBjVjsbAVx4f6ugGMMtAXHxkphzcgDh5aNHSOcUFxELtVJOL+9+YLFacMYrA0qvxCV0wox3gcrXu8Y+MLUT7ZBwk2yICCjCEacDyXgQtOF4RGOSoiCJUek0nNuVVkIulEj58R1SpBu1CTihhVsUOtGFvmOa6lBQHjzEkaEIeZtdGYXAc5beEwzfFE74ecR8XWNsMJxg7BBz+IzxzcKewfHhgGXHyB/ION1/Q4t0YeNqHI925Zpk9pGjoJzRaKvqSsBjpbqW3GY/A7llGOinvlbqIvzU1vh54GIyFaxNgztOcs/jyblxTkhIPQNOSBs4OeOJW5xLVp0F5/nP8oxbR5P7cP2xjeNwjpF6HhgeB+4mKo734ckVnvx8qa9dXAs7yw6VnqogQinuGgWwuZcHaehL4xCG6BnAwi06ppJlEJ0ttcj3FCwSyTptwEh5peO3arFZ2wo9GdogM6JBk2YCVUN1Qx5qDGOSDCKdKwvFEAcbs1nKSARuojHKLdlBODPKAWSDSI3EmCjWXAchDdPG8B+jGi/gusaSsgXl/48nmhYQ4Y4RCUImyEe7xxN0SEsSxR2DKX2jEgqox3E3+V8YeSn9mr0UbzB3HApi684NA8tQufWNQwgDauM8PPUqMSQBWZvDjGPqohAKSi1F6URecroIPbf2Bx9T6YQIFw6IIqvpv8aQ6nz5u+6kHIT+lzMx+r/VnFJ3K6PYk7Uo+FL7cWYaCcSj3R8r3Q3cVl8Q7B0kopixw3dHVUHiDZhO/S5ZHjzWV2Uhp2o+Ho3fLG9LkyI4oMTH9sgDB71RpZGUeg4dV7FJzLsQ87q/Hhg4uPUoyS++v5rDOXOpw0nPmhK77dhSJ+Pw7CLc3NyH5lcVc0sByI++MwtI422+AYy4ehEoPJMsd5MTBZwxYSjxyWGUnuBM6MRsEqAYd0+Do2jLT5xJpVuHHkNq3N8KG5bnj4jLRnXO16aSc7n5vERtic5UxIgnddFyBDSagBHrl4x2uIzjipHJ8OECBJdZPacIEUnOibB+PIwV8zr5EiUFl0pVw2us9SWJD6IXhBUTIDyDW6OT7hJKPKjn5G6Iy0+AB0uXEDO+PZM/Jiy46XoZUUr53/kXCligqFYxGHZ0MvVQtgbwt/u6gi60AYYcWZMgNSuYLPi+RxxvOmLBHtdHRvEbtiRFx8gG5JFYowAsZHgYBDBkFxXMnwsQoI4L6IXt2+MGa8rT4aiEwGQnGNuIq99sZ4TQelzc0wMEIPYV1xTYAfYoFSPSTbg/hkaG8s2EB5YGAvxRe/kNJKxIpEGkJZjalFwqA95+E0j9d21XSrv4szojeXlvQxx+K1DIUqOhfiA+Qqwm/AYMJ58R3chDFwhPIa05JNEbygvlSU40w7jwXGGEnCu+dlAngSOjfgYuIBkAyHiJAiDEeYyVbR9qLcuaIUgpwUl4kYLokmpb0KeJSGMauh7DGSD2PAfkGwQ5Lk+SjdcjZWEoQVFQcqlijkeGYMMZ8oSHSPBOsDmYAWhU+Q154Qza4g6BA3zlEuGkQF/G4cJQxhgczN3zTWjiE0tYCvDCsEw7LmQjwo2QN9T2iA7bnbHpz+NpFAoFAqFQqFQKBQKhUKhUCgUCoVCMaaYmPg/cNZ6c+z8k1QAAAAASUVORK5CYII=;" vertex="1" parent="1">
          <mxGeometry x="677" y="40" width="159" height="126" as="geometry" />
        </mxCell>
      </root>
    </mxGraphModel>
  </diagram>
</mxfile>
